# xmcd
#
# Track frame offsets:
#	150
#	17501
#	35391
#	51782
#	69676
#	83236
#	99255
#	113094
#	128406
#	142665
#	157977
#	174764
#
# Disc length: 2617 seconds
#
# Revision: 1
# Processed by: cddbd v1.5.2PL0 Copyright (c) Steve Scherf et al.
# Submitted via: audiograbber 1.83.01
#
DISCID=820a370c
DTITLE=Terri Clark - Fearless
DYEAR=1900
DGENRE=Country
TTITLE0=No fear
TTITLE1=Sometimes goodbye
TTITLE2=Take my time
TTITLE3=Empty
TTITLE4=Getting there
TTITLE5=Easy from now on
TTITLE6=A little gasoline
TTITLE7=Last thing I wanted
TTITLE8=To tell you everything
TTITLE9=The real thing
TTITLE10=Midnight's gone
TTITLE11=Good mother
EXTD=
EXTT0=
EXTT1=
EXTT2=
EXTT3=
EXTT4=
EXTT5=
EXTT6=
EXTT7=
EXTT8=
EXTT9=
EXTT10=
EXTT11=
PLAYORDER=
